<?xml version="1.0" encoding="utf-8"?>
<!-- Generator: Adobe Illustrator 16.0.0, SVG Export Plug-In . SVG Version: 6.00 Build 0)  -->
<!DOCTYPE svg PUBLIC "-//W3C//DTD SVG 1.1//EN" "http://www.w3.org/Graphics/SVG/1.1/DTD/svg11.dtd">
<svg version="1.1" id="Capa_1" xmlns="http://www.w3.org/2000/svg" xmlns:xlink="http://www.w3.org/1999/xlink" x="0px" y="0px"
	 width="340.158px" height="85.039px" viewBox="0 0 340.158 85.039" enable-background="new 0 0 340.158 85.039"
	 xml:space="preserve">
<rect fill="#A02140" width="340.158" height="85.039"/>
<g>
	<path fill="#FFFFFF" d="M80.278,25.163c0,8.696-7.059,15.746-15.761,15.746c-8.699,0-15.746-7.05-15.746-15.746
		c0-8.708,7.047-15.758,15.746-15.758C73.22,9.405,80.278,16.455,80.278,25.163"/>
	<path fill="#FFFFFF" d="M45.678,25.163c0,8.696-7.053,15.746-15.753,15.746c-8.696,0-15.751-7.05-15.751-15.746
		c0-8.708,7.055-15.758,15.751-15.758C38.625,9.405,45.678,16.455,45.678,25.163"/>
	<path fill="#FFFFFF" d="M45.678,59.758c0,8.698-7.053,15.744-15.753,15.744c-8.696,0-15.751-7.046-15.751-15.744
		c0-8.701,7.055-15.757,15.751-15.757C38.625,44.001,45.678,51.057,45.678,59.758"/>
	<path fill="#FFFFFF" d="M80.278,59.891c0,8.688-7.059,15.743-15.761,15.743c-8.699,0-15.746-7.055-15.746-15.743
		c0-8.707,7.047-15.763,15.746-15.763C73.22,44.128,80.278,51.184,80.278,59.891"/>
	<polygon fill="#FFFFFF" points="213.595,28.451 174.247,28.451 174.247,39.055 187.489,39.055 187.489,59.089 200.468,59.089 
		200.468,39.055 213.595,39.055 	"/>
	<path fill="#FFFFFF" d="M164.958,28.455h-18.903l-15.106,30.604c0,0,15.883,0.094,16.046,0l4.608-11.387
		c0,0,8.679,2.399,11.896,11.387h16.049L164.958,28.455z M152.109,46.233l3.859-9.615l2.953,9.615H152.109z"/>
	<path fill="#FFFFFF" d="M127.741,29.156v9.503c-0.198-0.26-0.794-0.477-1.408-0.699c-6.079-2.151-13.791-2.491-15.605-1.896
		c-1.657,0.52-2,1.604-0.787,2.29c0.787,0.478,4.93,1.12,9.356,2.153c10.516,2.43,14.503,6.527,10.594,12.58
		c-3.202,5.181-15.975,8.2-33.436,5.096c-1.044-0.179-1.313-0.654-3.48-0.861v-9.892c1.731,0.302,2.428,0.65,3.119,0.901
		c4.34,1.813,12.439,2.978,15.729,2.635c2.431-0.217,3.478-1.337,2.254-2.295c-0.689-0.558-5.544-1.077-9.722-1.978
		c-10.848-2.38-13.819-6.36-10.7-12.057c2.524-4.622,10.874-7.6,24.596-6.776c2.432,0.128,4.861,0.433,7.306,0.823
		C126.417,28.811,127.284,28.974,127.741,29.156"/>
	<path fill="#FFFFFF" d="M94.042,75.082c-0.475-0.136-0.858-0.318-1.145-0.541l0.506-1.114c0.273,0.196,0.605,0.365,0.988,0.486
		c0.377,0.117,0.751,0.184,1.134,0.184c0.425,0,0.738-0.066,0.936-0.192c0.202-0.124,0.312-0.287,0.312-0.504
		c0-0.148-0.062-0.274-0.181-0.378c-0.12-0.1-0.276-0.177-0.463-0.24c-0.188-0.064-0.437-0.135-0.759-0.203
		c-0.49-0.12-0.894-0.233-1.205-0.355c-0.309-0.113-0.574-0.293-0.802-0.558c-0.226-0.257-0.338-0.597-0.338-1.031
		c0-0.374,0.104-0.708,0.307-1.015c0.205-0.302,0.502-0.54,0.916-0.718c0.404-0.184,0.895-0.274,1.49-0.274
		c0.414,0,0.817,0.051,1.207,0.153c0.386,0.1,0.729,0.235,1.025,0.421l-0.457,1.131c-0.598-0.338-1.191-0.504-1.783-0.504
		c-0.415,0-0.727,0.067-0.923,0.198c-0.196,0.145-0.304,0.314-0.304,0.531c0,0.226,0.118,0.393,0.348,0.5
		c0.231,0.101,0.584,0.212,1.05,0.314c0.493,0.112,0.892,0.233,1.205,0.351c0.313,0.119,0.586,0.298,0.807,0.554
		c0.222,0.248,0.339,0.589,0.339,1.017c0,0.365-0.104,0.701-0.308,1.005c-0.207,0.304-0.519,0.549-0.928,0.723
		c-0.411,0.179-0.911,0.271-1.497,0.271C95.013,75.292,94.517,75.221,94.042,75.082"/>
	<polygon fill="#FFFFFF" points="104.803,73.985 104.803,75.185 99.815,75.185 99.815,68.741 104.682,68.741 104.682,69.942 
		101.298,69.942 101.298,71.334 104.288,71.334 104.288,72.493 101.298,72.493 101.298,73.985 	"/>
	<path fill="#FFFFFF" d="M110.64,75.18l-1.239-1.791h-0.079h-1.293v1.791h-1.487v-6.44h2.78c0.576,0,1.068,0.1,1.491,0.288
		c0.42,0.196,0.739,0.462,0.971,0.812c0.224,0.344,0.334,0.763,0.334,1.24c0,0.476-0.11,0.893-0.343,1.236
		c-0.23,0.344-0.552,0.612-0.979,0.795l1.447,2.069H110.64z M110.266,70.246c-0.235-0.192-0.582-0.285-1.026-0.285h-1.211v2.241
		h1.211c0.444,0,0.791-0.098,1.026-0.298c0.229-0.196,0.346-0.47,0.346-0.825C110.611,70.72,110.494,70.438,110.266,70.246"/>
	<polygon fill="#FFFFFF" points="120.034,68.739 117.246,75.177 115.78,75.177 113.008,68.739 114.613,68.739 116.568,73.342 
		118.555,68.739 	"/>
	<rect x="121.116" y="68.739" fill="#FFFFFF" width="1.498" height="6.436"/>
	<path fill="#FFFFFF" d="M125.986,74.86c-0.524-0.279-0.942-0.677-1.246-1.184c-0.304-0.509-0.459-1.075-0.459-1.717
		c0-0.634,0.155-1.207,0.459-1.714c0.304-0.506,0.722-0.9,1.246-1.184c0.535-0.288,1.13-0.435,1.791-0.435
		c0.561,0,1.064,0.105,1.516,0.304c0.45,0.192,0.825,0.472,1.132,0.838l-0.956,0.882c-0.434-0.499-0.976-0.749-1.61-0.749
		c-0.404,0-0.758,0.084-1.078,0.263c-0.307,0.172-0.552,0.415-0.731,0.725c-0.17,0.314-0.257,0.674-0.257,1.07
		c0,0.4,0.087,0.749,0.257,1.066c0.18,0.316,0.425,0.554,0.731,0.731c0.32,0.175,0.674,0.258,1.078,0.258
		c0.635,0,1.177-0.25,1.61-0.754l0.956,0.877c-0.307,0.373-0.682,0.657-1.141,0.856c-0.446,0.196-0.957,0.297-1.517,0.297
		C127.113,75.292,126.521,75.146,125.986,74.86"/>
	<rect x="131.982" y="68.739" fill="#FFFFFF" width="1.495" height="6.436"/>
	<path fill="#FFFFFF" d="M136.858,74.855c-0.538-0.292-0.955-0.683-1.262-1.193c-0.306-0.504-0.448-1.067-0.448-1.702
		c0-0.631,0.143-1.203,0.448-1.704c0.307-0.506,0.724-0.901,1.262-1.19c0.544-0.29,1.137-0.439,1.804-0.439s1.272,0.149,1.802,0.439
		c0.535,0.289,0.951,0.685,1.262,1.19c0.302,0.501,0.463,1.073,0.463,1.704c0,0.635-0.161,1.198-0.463,1.702
		c-0.311,0.511-0.727,0.901-1.262,1.193c-0.529,0.29-1.135,0.435-1.802,0.435S137.402,75.146,136.858,74.855 M139.694,73.756
		c0.307-0.178,0.546-0.414,0.723-0.73c0.174-0.316,0.259-0.665,0.259-1.065c0-0.396-0.085-0.756-0.259-1.072
		c-0.177-0.308-0.416-0.551-0.723-0.723c-0.31-0.181-0.652-0.265-1.032-0.265c-0.377,0-0.721,0.084-1.034,0.265
		c-0.306,0.172-0.543,0.415-0.715,0.723c-0.176,0.316-0.263,0.676-0.263,1.072c0,0.4,0.087,0.749,0.263,1.065
		c0.172,0.316,0.409,0.553,0.715,0.73c0.313,0.176,0.657,0.26,1.034,0.26C139.042,74.016,139.385,73.932,139.694,73.756"/>
	<path fill="#FFFFFF" d="M147.009,68.739h2.924c0.701,0,1.323,0.141,1.854,0.402c0.539,0.27,0.952,0.643,1.253,1.126
		c0.298,0.489,0.444,1.046,0.444,1.688c0,0.653-0.146,1.211-0.444,1.697c-0.301,0.486-0.714,0.859-1.253,1.131
		c-0.53,0.26-1.152,0.394-1.854,0.394h-2.924V68.739z M149.861,73.955c0.647,0,1.156-0.183,1.538-0.536
		c0.381-0.359,0.577-0.846,0.577-1.464c0-0.605-0.196-1.091-0.577-1.447c-0.382-0.364-0.891-0.544-1.538-0.544h-1.358v3.991H149.861
		z"/>
	<polygon fill="#FFFFFF" points="160.141,73.985 160.141,75.185 155.15,75.185 155.15,68.741 160.013,68.741 160.013,69.942 
		156.638,69.942 156.638,71.334 159.63,71.334 159.63,72.493 156.638,72.493 156.638,73.985 	"/>
	<path fill="#FFFFFF" d="M169.274,73.798h-2.992l-0.574,1.377h-1.524l2.868-6.436h1.476l2.874,6.436h-1.563L169.274,73.798z
		 M168.8,72.667l-1.022-2.46l-1.013,2.46H168.8z"/>
	<path fill="#FFFFFF" d="M172.626,68.739h2.919c0.702,0,1.317,0.141,1.854,0.402c0.54,0.27,0.954,0.643,1.25,1.126
		c0.3,0.489,0.446,1.046,0.446,1.688c0,0.653-0.146,1.211-0.446,1.697c-0.296,0.486-0.71,0.859-1.25,1.131
		c-0.537,0.26-1.152,0.394-1.854,0.394h-2.919V68.739z M175.476,73.955c0.642,0,1.156-0.183,1.546-0.536
		c0.372-0.359,0.568-0.846,0.568-1.464c0-0.605-0.196-1.091-0.568-1.447c-0.39-0.364-0.904-0.544-1.546-0.544h-1.358v3.991H175.476z
		"/>
	<polygon fill="#FFFFFF" points="186.632,75.177 186.616,71.313 184.722,74.491 184.058,74.491 182.165,71.402 182.165,75.177 
		180.77,75.177 180.77,68.739 181.999,68.739 184.412,72.741 186.782,68.739 188.008,68.739 188.023,75.177 	"/>
	<rect x="190.1" y="68.739" fill="#FFFFFF" width="1.496" height="6.436"/>
	<polygon fill="#FFFFFF" points="199.571,68.739 199.571,75.177 198.346,75.177 195.142,71.274 195.142,75.177 193.67,75.177 
		193.67,68.739 194.898,68.739 198.1,72.646 198.1,68.739 	"/>
	<rect x="201.646" y="68.739" fill="#FFFFFF" width="1.495" height="6.436"/>
	<path fill="#FFFFFF" d="M205.854,75.082c-0.474-0.136-0.852-0.318-1.144-0.541l0.507-1.114c0.273,0.196,0.602,0.365,0.983,0.486
		c0.377,0.117,0.761,0.184,1.14,0.184c0.416,0,0.736-0.066,0.937-0.192c0.199-0.124,0.308-0.287,0.308-0.504
		c0-0.148-0.061-0.274-0.184-0.378c-0.119-0.1-0.27-0.177-0.463-0.24c-0.185-0.064-0.433-0.135-0.753-0.203
		c-0.496-0.12-0.895-0.233-1.204-0.355c-0.314-0.113-0.586-0.293-0.805-0.558c-0.227-0.257-0.337-0.597-0.337-1.031
		c0-0.374,0.102-0.708,0.304-1.015c0.201-0.302,0.507-0.54,0.915-0.718c0.403-0.184,0.903-0.274,1.488-0.274
		c0.418,0,0.811,0.051,1.212,0.153c0.386,0.1,0.731,0.235,1.027,0.421l-0.453,1.131c-0.603-0.338-1.199-0.504-1.791-0.504
		c-0.417,0-0.725,0.067-0.924,0.198c-0.205,0.145-0.302,0.314-0.302,0.531c0,0.226,0.112,0.393,0.347,0.5
		c0.227,0.101,0.578,0.212,1.052,0.314c0.495,0.112,0.891,0.233,1.208,0.351c0.309,0.119,0.583,0.298,0.801,0.554
		c0.23,0.248,0.336,0.589,0.336,1.017c0,0.365-0.098,0.701-0.304,1.005c-0.207,0.304-0.517,0.549-0.928,0.723
		c-0.413,0.179-0.911,0.271-1.495,0.271C206.817,75.292,206.33,75.221,205.854,75.082"/>
	<polygon fill="#FFFFFF" points="212.865,69.959 210.804,69.959 210.804,68.739 216.411,68.739 216.411,69.959 214.354,69.959 
		214.354,75.177 212.865,75.177 	"/>
	<path fill="#FFFFFF" d="M221.864,75.18l-1.238-1.791h-0.073h-1.298v1.791h-1.491v-6.44h2.789c0.563,0,1.061,0.1,1.486,0.288
		c0.421,0.196,0.737,0.462,0.974,0.812c0.224,0.344,0.332,0.763,0.332,1.24c0,0.476-0.108,0.893-0.346,1.236
		c-0.229,0.344-0.551,0.612-0.973,0.795l1.441,2.069H221.864z M221.485,70.246c-0.225-0.192-0.566-0.285-1.015-0.285h-1.216v2.241
		h1.216c0.448,0,0.79-0.098,1.015-0.298c0.235-0.196,0.354-0.47,0.354-0.825C221.839,70.72,221.721,70.438,221.485,70.246"/>
	<path fill="#FFFFFF" d="M229.31,73.798h-2.985l-0.57,1.377h-1.525l2.87-6.436h1.475l2.872,6.436h-1.56L229.31,73.798z
		 M228.84,72.667l-1.015-2.46l-1.024,2.46H228.84z"/>
	<path fill="#FFFFFF" d="M233.881,74.86c-0.536-0.279-0.953-0.677-1.248-1.184c-0.309-0.509-0.462-1.075-0.462-1.717
		c0-0.634,0.153-1.207,0.462-1.714c0.295-0.506,0.712-0.9,1.248-1.184c0.53-0.288,1.12-0.435,1.786-0.435
		c0.562,0,1.063,0.105,1.513,0.304c0.448,0.192,0.828,0.472,1.128,0.838l-0.947,0.882c-0.439-0.499-0.977-0.749-1.621-0.749
		c-0.4,0-0.752,0.084-1.066,0.263c-0.314,0.172-0.556,0.415-0.733,0.725c-0.174,0.314-0.261,0.674-0.261,1.07
		c0,0.4,0.087,0.749,0.261,1.066c0.178,0.316,0.419,0.554,0.733,0.731c0.314,0.175,0.666,0.258,1.066,0.258
		c0.645,0,1.182-0.25,1.621-0.754l0.947,0.877c-0.3,0.373-0.68,0.657-1.133,0.856c-0.452,0.196-0.961,0.297-1.514,0.297
		C235.001,75.292,234.411,75.146,233.881,74.86"/>
	<rect x="239.867" y="68.739" fill="#FFFFFF" width="1.484" height="6.436"/>
	<path fill="#FFFFFF" d="M244.741,74.859c-0.53-0.29-0.95-0.688-1.26-1.197c-0.299-0.504-0.457-1.067-0.457-1.702
		c0-0.631,0.158-1.203,0.457-1.707c0.31-0.503,0.729-0.897,1.26-1.188c0.537-0.291,1.145-0.438,1.805-0.438
		c0.667,0,1.271,0.146,1.809,0.438c0.529,0.29,0.955,0.685,1.259,1.188c0.306,0.504,0.458,1.076,0.458,1.707
		c0,0.635-0.152,1.198-0.458,1.702c-0.304,0.51-0.729,0.907-1.259,1.197c-0.537,0.283-1.142,0.433-1.809,0.433
		C245.886,75.292,245.278,75.143,244.741,74.859 M247.58,73.756c0.306-0.175,0.544-0.414,0.718-0.73
		c0.182-0.316,0.27-0.665,0.27-1.065c0-0.396-0.088-0.756-0.27-1.07c-0.174-0.31-0.412-0.553-0.718-0.725
		c-0.313-0.179-0.65-0.263-1.034-0.263c-0.377,0-0.721,0.084-1.022,0.263c-0.311,0.172-0.549,0.415-0.729,0.725
		c-0.17,0.314-0.253,0.674-0.253,1.07c0,0.4,0.083,0.749,0.253,1.065c0.181,0.316,0.419,0.556,0.729,0.73
		c0.302,0.177,0.646,0.267,1.022,0.267C246.93,74.022,247.267,73.933,247.58,73.756 M246.956,66.894h1.544l-1.667,1.326h-1.121
		L246.956,66.894z"/>
	<polygon fill="#FFFFFF" points="257.644,68.739 257.644,75.177 256.417,75.177 253.206,71.274 253.206,75.177 251.739,75.177 
		251.739,68.739 252.97,68.739 256.164,72.646 256.164,68.739 	"/>
	<polygon fill="#FFFFFF" points="264.199,69.959 262.143,69.959 262.143,68.739 267.745,68.739 267.745,69.959 265.688,69.959 
		265.688,75.177 264.199,75.177 	"/>
	<path fill="#FFFFFF" d="M273.196,75.18l-1.245-1.791h-0.072h-1.299v1.791h-1.487v-6.44h2.786c0.564,0,1.065,0.1,1.487,0.288
		c0.418,0.196,0.738,0.462,0.969,0.812c0.224,0.344,0.335,0.763,0.335,1.24c0,0.476-0.111,0.893-0.341,1.236
		c-0.23,0.344-0.56,0.612-0.981,0.795l1.449,2.069H273.196z M272.813,70.246c-0.231-0.192-0.572-0.285-1.02-0.285h-1.214v2.241
		h1.214c0.447,0,0.788-0.098,1.02-0.298c0.232-0.196,0.353-0.47,0.353-0.825C273.166,70.72,273.046,70.438,272.813,70.246"/>
	<rect x="276.4" y="68.739" fill="#FFFFFF" width="1.494" height="6.436"/>
	<path fill="#FFFFFF" d="M285.563,72.411c0.211,0.278,0.311,0.614,0.311,1.015c0,0.558-0.214,0.989-0.656,1.295
		c-0.442,0.305-1.077,0.459-1.92,0.459h-3.326v-6.44h3.147c0.784,0,1.38,0.153,1.803,0.458c0.419,0.292,0.633,0.703,0.633,1.218
		c0,0.315-0.075,0.585-0.227,0.835c-0.149,0.246-0.362,0.44-0.633,0.58C285.065,71.945,285.352,72.142,285.563,72.411
		 M281.45,69.861v1.52h1.482c0.364,0,0.645-0.07,0.837-0.2c0.191-0.124,0.285-0.311,0.285-0.561c0-0.253-0.094-0.438-0.285-0.569
		c-0.192-0.122-0.473-0.189-0.837-0.189H281.45z M284.077,73.858c0.193-0.12,0.297-0.322,0.297-0.592
		c0-0.533-0.397-0.799-1.188-0.799h-1.736v1.589h1.736C283.577,74.057,283.878,73.991,284.077,73.858"/>
	<path fill="#FFFFFF" d="M288.259,74.527c-0.52-0.512-0.768-1.236-0.768-2.182v-3.606h1.489v3.555c0,1.153,0.479,1.729,1.43,1.729
		c0.472,0,0.83-0.138,1.069-0.42c0.246-0.274,0.37-0.713,0.37-1.309v-3.555h1.478v3.606c0,0.945-0.26,1.67-0.774,2.182
		c-0.508,0.51-1.231,0.763-2.148,0.763C289.483,75.29,288.773,75.037,288.259,74.527"/>
	<polygon fill="#FFFFFF" points="296.57,69.959 294.505,69.959 294.505,68.739 300.111,68.739 300.111,69.959 298.048,69.959 
		298.048,75.177 296.57,75.177 	"/>
	<path fill="#FFFFFF" d="M305.379,73.798h-2.985l-0.567,1.377h-1.529l2.86-6.436h1.477l2.88,6.436h-1.565L305.379,73.798z
		 M304.916,72.667l-1.027-2.46l-1.021,2.46H304.916z"/>
	<path fill="#FFFFFF" d="M312.838,75.18l-1.241-1.791h-0.074h-1.293v1.791h-1.493v-6.44h2.786c0.57,0,1.07,0.1,1.484,0.288
		c0.419,0.196,0.742,0.462,0.967,0.812c0.235,0.344,0.344,0.763,0.344,1.24c0,0.476-0.108,0.893-0.345,1.236
		c-0.229,0.344-0.559,0.612-0.978,0.795l1.44,2.069H312.838z M312.458,70.246c-0.227-0.192-0.568-0.285-1.018-0.285h-1.211v2.241
		h1.211c0.449,0,0.791-0.098,1.018-0.298c0.236-0.196,0.347-0.47,0.347-0.825C312.805,70.72,312.694,70.438,312.458,70.246"/>
	<rect x="316.042" y="68.739" fill="#FFFFFF" width="1.5" height="6.436"/>
	<path fill="#FFFFFF" d="M323.854,73.798h-2.993l-0.567,1.377h-1.524l2.866-6.436h1.474l2.876,6.436h-1.56L323.854,73.798z
		 M323.381,72.667l-1.021-2.46l-1.02,2.46H323.381z"/>
</g>
</svg>
